<svg width="800" height="600" viewBox="0 0 800 600" fill="none" xmlns="http://www.w3.org/2000/svg">
  <!-- Background -->
  <rect width="800" height="600" fill="#F3F4F6"/>
  
  <!-- Vehicle Icon -->
  <g transform="translate(150, 200)">
    <!-- Car Body -->
    <path d="M 100 80 L 140 40 L 360 40 L 400 80 L 500 80 L 500 180 L 0 180 L 0 80 Z" fill="#6B7280" stroke="#374151" stroke-width="3"/>
    
    <!-- Windshield -->
    <path d="M 140 40 L 160 80 L 340 80 L 360 40 Z" fill="#93C5FD" stroke="#374151" stroke-width="2"/>
    
    <!-- Windows -->
    <rect x="20" y="90" width="120" height="60" fill="#93C5FD" stroke="#374151" stroke-width="2" rx="5"/>
    <rect x="360" y="90" width="120" height="60" fill="#93C5FD" stroke="#374151" stroke-width="2" rx="5"/>
    
    <!-- Wheels -->
    <circle cx="100" cy="180" r="40" fill="#1F2937" stroke="#374151" stroke-width="3"/>
    <circle cx="100" cy="180" r="20" fill="#4B5563"/>
    <circle cx="400" cy="180" r="40" fill="#1F2937" stroke="#374151" stroke-width="3"/>
    <circle cx="400" cy="180" r="20" fill="#4B5563"/>
    
    <!-- Headlights -->
    <circle cx="480" cy="120" r="15" fill="#FDE047"/>
    <circle cx="20" cy="120" r="15" fill="#FDE047"/>
    
    <!-- Grill -->
    <rect x="470" y="100" width="25" height="40" fill="#374151" stroke="#1F2937" stroke-width="2" rx="3"/>
  </g>
  
  <!-- Text -->
  <text x="400" y="450" font-family="Arial, sans-serif" font-size="24" fill="#6B7280" text-anchor="middle" font-weight="600">
    Vehicle Photo Not Available
  </text>
</svg>

